<?xml version="1.0" encoding="UTF-8"?>
<svg id="Layer_1" data-name="Layer 1" xmlns="http://www.w3.org/2000/svg" viewBox="0 0 405 330.22">
  <defs>
    <style>
      .cls-1 {
        fill: none;
        stroke: #000;
        stroke-linecap: round;
        stroke-miterlimit: 10;
        stroke-width: 16px;
      }

      .cls-2 {
        stroke-width: 0px;
      }
    </style>
  </defs>
  <line class="cls-1" x1="92.21" y1="8" x2="312.23" y2="322.22"/>
  <path class="cls-2" d="m255.1,73.31h92.11c1.66,0,3.01,1.35,3.01,3.01v12.99c0,8.83-7.17,16-16,16h-66.13c-8.83,0-16-7.17-16-16v-12.99c0-1.66,1.35-3.01,3.01-3.01Z"/>
  <path class="cls-1" d="m335.07,299.64h4.93c31.48,0,57-25.52,57-57v-1c0-31.48-25.52-57-57-57h-85.46"/>
  <path class="cls-1" d="m228.05,146.81h111.95c31.48,0,57-25.52,57-57v-1c0-31.48-25.52-57-57-57h-192.47"/>
  <path class="cls-1" d="m176.95,184.64h-111.95c-31.48,0-57,25.52-57,57v1c0,31.48,25.52,57,57,57h192.47"/>
  <path class="cls-1" d="m69.93,31.81h-4.93c-31.48,0-57,25.52-57,57v1c0,31.48,25.52,57,57,57h85.45"/>
  <path class="cls-2" d="m156.16,226.14c-2.21,0-4,1.79-4,4v24c0,2.21,1.79,4,4,4h69.57c3.24,0,5.13-3.64,3.28-6.29l-16.8-24c-.75-1.07-1.97-1.71-3.28-1.71h-52.77Z"/>
  <path class="cls-2" d="m334.46,226.14h-50.33c-3.16,0-5.02,3.64-3.2,6.29l16.43,24c.73,1.07,1.93,1.71,3.2,1.71h33.9c8.64,0,15.64-7.16,15.64-16h0c0-8.84-7-16-15.64-16Z"/>
</svg>